<svg xmlns="http://www.w3.org/2000/svg" version="1.1" xmlns:xlink="http://www.w3.org/1999/xlink" xmlns:svgjs="http://svgjs.dev/svgjs" width="2000" height="1500" viewBox="0 0 2000 1500"><rect width="2000" height="1500" fill="#ececea"></rect><g transform="matrix(0.75,0,0,0.75,249.090909090909,396.5473013760905)"><svg viewBox="0 0 396 187" data-background-color="#ececea" preserveAspectRatio="xMidYMid meet" height="944" width="2000" xmlns="http://www.w3.org/2000/svg" xmlns:xlink="http://www.w3.org/1999/xlink"><g id="tight-bounds" transform="matrix(1,0,0,1,0.2400000000000091,-0.14426696144832363)"><svg viewBox="0 0 395.52 187.28882255089587" height="187.28882255089587" width="395.52"><g><svg viewBox="0 0 397.4975999999999 188.22526666365033" height="187.28882255089587" width="395.52"><g><rect width="397.4975999999999" height="5.384319894360732" x="0" y="96.60832887106054" fill="#009b7d" opacity="1" stroke-width="0" stroke="transparent" fill-opacity="1" class="rect-qz-0" data-fill-palette-color="primary" rx="1%" id="qz-0" data-palette-color="#009b7d"></rect></g><g><rect width="397.4975999999999" height="5.384319894360732" x="0" y="109.04018789416567" fill="#009b7d" opacity="1" stroke-width="0" stroke="transparent" fill-opacity="1" class="rect-qz-1" data-fill-palette-color="primary" rx="1%" id="qz-1" data-palette-color="#009b7d"></rect></g><g transform="matrix(1,0,0,1,0.9887999999999693,128.51958604601523)"><svg viewBox="0 0 395.52 59.7056806176351" height="59.7056806176351" width="395.52"><g id="textblocktransform"><svg viewBox="0 0 395.52 59.7056806176351" height="59.7056806176351" width="395.52" id="textblock"><g><svg viewBox="0 0 395.52 59.7056806176351" height="59.7056806176351" width="395.52"><g transform="matrix(1,0,0,1,0,0)"><svg width="395.52" viewBox="2.55 -36.5 246.07 37.15" height="59.7056806176351" data-palette-color="#009b7d"><path d="M13.75 0.65L13.75 0.65Q9.85 0.65 7.38-0.35 4.9-1.35 3.73-3.05 2.55-4.75 2.55-6.75L2.55-6.75Q2.55-7.7 2.9-8.43 3.25-9.15 4.05-9.47 4.85-9.8 6.25-9.6L6.25-9.6Q6.1-9.15 6.08-8.63 6.05-8.1 6.1-7.5L6.1-7.5Q6.2-5.6 7.18-4.2 8.15-2.8 9.93-2 11.7-1.2 14.15-1.2L14.15-1.2Q17.35-1.2 19.38-2.73 21.4-4.25 21.4-7.3L21.4-7.3Q21.4-9.3 20.48-10.73 19.55-12.15 17.78-13.43 16-14.7 13.4-16.1L13.4-16.1Q10.55-17.75 8.38-19.23 6.2-20.7 5-22.58 3.8-24.45 3.8-27.1L3.8-27.1Q3.8-30.05 5.25-31.83 6.7-33.6 9.13-34.45 11.55-35.3 14.4-35.3L14.4-35.3Q18.85-35.3 21.6-33.68 24.35-32.05 24.35-29.1L24.35-29.1Q24.35-28.2 23.93-27.58 23.5-26.95 22.35-26.8L22.35-26.8Q21.7-26.6 20.8-26.8L20.8-26.8Q20.95-27.35 20.93-27.9 20.9-28.45 20.8-28.9L20.8-28.9Q20.65-30.35 19.78-31.35 18.9-32.35 17.4-32.9 15.9-33.45 14-33.45L14-33.45Q12.5-33.45 11.03-32.98 9.55-32.5 8.58-31.4 7.6-30.3 7.6-28.35L7.6-28.35Q7.6-26.35 8.6-24.93 9.6-23.5 11.4-22.3 13.2-21.1 15.65-19.75L15.65-19.75Q18.35-18.35 20.55-16.78 22.75-15.2 24.08-13.2 25.4-11.2 25.4-8.4L25.4-8.4Q25.4-6.7 24.8-5.08 24.2-3.45 22.8-2.18 21.4-0.9 19.18-0.13 16.95 0.65 13.75 0.65ZM37.35 0.65L37.35 0.65Q34.8 0.65 33.17-0.13 31.55-0.9 30.8-2.15 30.05-3.4 30.05-4.8L30.05-4.8Q30.05-5.9 30.65-6.8 31.25-7.7 32.55-7.7L32.55-7.7Q33.1-7.7 33.42-7.55 33.75-7.4 34-7L34-7Q33.8-6.5 33.67-6 33.55-5.5 33.55-5L33.55-5Q33.55-3.7 34.15-2.88 34.75-2.05 35.6-1.63 36.45-1.2 37.3-1.2L37.3-1.2Q39.25-1.2 40.22-2.18 41.2-3.15 41.57-4.83 41.95-6.5 41.95-8.6L41.95-8.6 41.95-30.7Q41.95-31.4 41.97-32.08 42-32.75 42.15-33.25L42.15-33.25Q40.95-33.25 39.62-33.3 38.3-33.35 37-33.45L37-33.45Q36.15-33.5 35.3-33.13 34.45-32.75 34.45-31.5L34.45-31.5Q34.45-30.55 34.87-29.95 35.3-29.35 35.9-29L35.9-29Q35.6-28.7 35.1-28.6 34.6-28.5 34.15-28.5L34.15-28.5Q33.1-28.5 32.17-29.38 31.25-30.25 31.25-31.8L31.25-31.8Q31.25-33.3 32.35-34.3 33.45-35.3 35.6-35.3L35.6-35.3Q36.35-35.3 37.4-35.23 38.45-35.15 39.7-35.1 40.95-35.05 42.1-35L42.1-35Q43.35-34.95 44.37-35.05 45.4-35.15 46.2-35.2L46.2-35.2Q46.1-34.55 46.05-33.68 46-32.8 46-31.6L46-31.6 46-8.95Q46-7.15 45.62-5.45 45.25-3.75 44.32-2.38 43.4-1 41.7-0.18 40 0.65 37.35 0.65ZM69.74 0.55L69.74 0.55Q68.69 0.55 68.04-0.05 67.39-0.65 67.34-1.65L67.34-1.65 67.34-28.85Q67.34-29.35 67.32-30.35 67.29-31.35 67.14-32.43 66.99-33.5 66.69-34.2L66.69-34.2Q67.49-34.6 69.19-34.95 70.89-35.3 74.04-35.3L74.04-35.3Q81.09-35.3 84.54-33.1 87.99-30.9 87.99-25.85L87.99-25.85Q87.99-22.95 86.69-20.8 85.39-18.65 83.09-17.4 80.79-16.15 77.79-15.95L77.79-15.95 78.09-16.65Q80.14-16.65 81.47-15.93 82.79-15.2 83.64-14 84.49-12.8 85.14-11.3L85.14-11.3 87.64-5.4Q88.24-3.9 88.79-3.3 89.34-2.7 89.99-2.65L89.99-2.65Q90.24-2.65 90.67-2.78 91.09-2.9 91.44-3.3L91.44-3.3Q91.64-2.95 91.69-2.63 91.74-2.3 91.74-2L91.74-2Q91.74-1.15 91.22-0.58 90.69 0 89.99 0.28 89.29 0.55 88.74 0.55L88.74 0.55Q87.44 0.55 86.54-0.05 85.64-0.65 84.99-1.78 84.34-2.9 83.69-4.4L83.69-4.4 81.39-10.3Q80.89-11.55 80.29-12.7 79.69-13.85 78.52-14.55 77.34-15.25 75.09-15.25L75.09-15.25 70.89-15.3 70.44-17.15Q71.39-17.1 72.59-17.07 73.79-17.05 75.29-17.05L75.29-17.05Q77.69-17.1 79.57-18.15 81.44-19.2 82.52-21.08 83.59-22.95 83.59-25.5L83.59-25.5Q83.59-29.55 81.39-31.53 79.19-33.5 74.24-33.5L74.24-33.5Q73.24-33.5 72.54-33.48 71.84-33.45 71.39-33.35L71.39-33.35 71.39-5.55Q71.39-5.05 71.44-4.08 71.49-3.1 71.64-2.1 71.79-1.1 72.04-0.35L72.04-0.35Q71.74-0.1 71.17 0.23 70.59 0.55 69.74 0.55ZM105.89 0.65L105.89 0.65Q100.49 0.65 97.34-2.73 94.19-6.1 94.19-12.55L94.19-12.55Q94.19-18.8 97.27-22.43 100.34-26.05 106.09-26.05L106.09-26.05Q108.79-26.05 110.84-25.23 112.89-24.4 114.07-22.8 115.24-21.2 115.24-18.85L115.24-18.85Q115.24-15.1 112.22-13.18 109.19-11.25 103.89-11.25L103.89-11.25Q101.79-11.25 99.89-11.43 97.99-11.6 96.04-12L96.04-12 96.14-13.65Q97.39-13.4 99.07-13.25 100.74-13.1 102.34-13.05L102.34-13.05Q104.09-13.05 105.67-13.35 107.24-13.65 108.44-14.35 109.64-15.05 110.32-16.28 110.99-17.5 110.99-19.35L110.99-19.35Q110.99-21.3 110.24-22.35 109.49-23.4 108.34-23.83 107.19-24.25 105.94-24.25L105.94-24.25Q102.59-24.25 100.52-21.43 98.44-18.6 98.44-13.05L98.44-13.05Q98.44-8.9 99.57-6.53 100.69-4.15 102.59-3.13 104.49-2.1 106.84-2.1L106.84-2.1Q109.54-2.1 111.59-3.23 113.64-4.35 114.34-6.45L114.34-6.45Q114.84-6.25 115.07-5.73 115.29-5.2 114.79-3.95L114.79-3.95Q113.84-1.7 111.44-0.53 109.04 0.65 105.89 0.65ZM141.04 0.5L141.04 0.5Q138.89 0.5 137.79-0.98 136.69-2.45 136.69-5.7L136.69-5.7 136.69-10.15 137.64-9.7Q136.79-6.7 135.06-4.38 133.34-2.05 131.04-0.75 128.74 0.55 126.04 0.55L126.04 0.55Q123.09 0.55 121.44-1.03 119.79-2.6 119.79-5.25L119.79-5.25Q119.79-7.3 120.86-8.9 121.94-10.5 123.81-11.6 125.69-12.7 128.09-13.35L128.09-13.35Q130.19-13.9 132.41-14.1 134.64-14.3 136.49-14.2L136.49-14.2 136.49-15.5Q136.49-19.85 135.04-22.05 133.59-24.25 130.14-24.25L130.14-24.25Q128.94-24.25 127.71-23.88 126.49-23.5 125.71-22.65 124.94-21.8 124.94-20.2L124.94-20.2Q124.94-19.2 125.44-18.13 125.94-17.05 127.09-16.65L127.09-16.65Q126.64-16.1 125.99-15.88 125.34-15.65 124.69-15.65L124.69-15.65Q122.94-15.65 121.94-17 120.94-18.35 120.94-20.05L120.94-20.05Q120.94-23 123.54-24.53 126.14-26.05 130.49-26.05L130.49-26.05Q135.69-26.05 138.11-23.4 140.54-20.75 140.54-15.25L140.54-15.25 140.54-5.25Q140.54-2.6 142.34-2.6L142.34-2.6Q142.74-2.6 143.24-2.85 143.74-3.1 143.99-3.65L143.99-3.65Q144.29-3.25 144.41-2.83 144.54-2.4 144.54-2.1L144.54-2.1Q144.54-1 143.54-0.25 142.54 0.5 141.04 0.5ZM127.84-2.25L127.84-2.25Q129.29-2.25 130.81-3.13 132.34-4 133.64-5.45 134.94-6.9 135.76-8.75 136.59-10.6 136.59-12.6L136.59-12.6Q135.44-12.7 134.01-12.6 132.59-12.5 131.24-12.25 129.89-12 128.84-11.6L128.84-11.6Q126.64-10.8 125.39-9.43 124.14-8.05 124.14-6.1L124.14-6.1Q124.14-4.6 124.99-3.38 125.84-2.15 127.84-2.25ZM153.79 0.5L153.79 0.5Q151.54 0.5 150.29-0.98 149.04-2.45 149.04-5.05L149.04-5.05 149.04-34.3Q149.04-35.35 149.69-35.93 150.34-36.5 151.39-36.5L151.39-36.5Q152.24-36.5 152.81-36.18 153.39-35.85 153.69-35.6L153.69-35.6Q153.24-34.2 153.14-31.95 153.04-29.7 153.04-25.85L153.04-25.85 153.04-5.25Q153.04-4 153.51-3.3 153.99-2.6 154.94-2.6L154.94-2.6Q155.49-2.6 156.01-2.85 156.54-3.1 156.79-3.65L156.79-3.65Q157.09-3.25 157.21-2.83 157.34-2.4 157.34-2.1L157.34-2.1Q157.34-0.95 156.26-0.23 155.19 0.5 153.79 0.5ZM164.88-30.15L164.88-30.15Q163.78-30.15 162.98-30.95 162.18-31.75 162.18-32.85L162.18-32.85Q162.18-34 162.98-34.77 163.78-35.55 164.88-35.55L164.88-35.55Q166.03-35.55 166.81-34.77 167.58-34 167.58-32.85L167.58-32.85Q167.58-31.75 166.81-30.95 166.03-30.15 164.88-30.15ZM167.03-23.85L167.08-5.7Q167.08-4.25 167.21-2.85 167.33-1.45 167.73-0.35L167.73-0.35Q167.43-0.1 166.86 0.23 166.28 0.55 165.43 0.55L165.43 0.55Q164.48 0.55 163.83-0.05 163.18-0.65 163.18-1.65L163.18-1.65 163.13-19.8Q163.13-21.25 163.01-22.65 162.88-24.05 162.48-25.15L162.48-25.15Q162.78-25.4 163.36-25.73 163.93-26.05 164.78-26.05L164.78-26.05Q165.78-26.05 166.41-25.48 167.03-24.9 167.03-23.85L167.03-23.85ZM181.33 0.55L181.33 0.55Q178.93 0.55 177.61-0.93 176.28-2.4 176.28-5L176.28-5 176.28-29.8Q176.28-30.85 176.93-31.43 177.58-32 178.63-32L178.63-32Q179.53-32 180.08-31.68 180.63-31.35 180.93-31.1L180.93-31.1Q180.48-29.7 180.38-27.45 180.28-25.2 180.28-21.35L180.28-21.35 180.28-5.25Q180.28-4 180.88-3.28 181.48-2.55 182.68-2.55L182.68-2.55Q183.38-2.55 184.08-2.8 184.78-3.05 185.03-3.6L185.03-3.6Q185.33-3.2 185.46-2.78 185.58-2.35 185.58-2L185.58-2Q185.58-0.9 184.38-0.18 183.18 0.55 181.33 0.55ZM172.58-23.1L172.58-23.1 172.63-24.25Q172.68-24.8 173.01-25.08 173.33-25.35 173.73-25.35L173.73-25.35 182.33-25.35Q182.53-25.35 183.13-25.38 183.73-25.4 184.46-25.43 185.18-25.45 185.78-25.48 186.38-25.5 186.58-25.5L186.58-25.5 186.53-24.4Q186.48-23.85 186.18-23.55 185.88-23.25 185.43-23.25L185.43-23.25 175.58-23.25Q175.08-23.25 174.08-23.23 173.08-23.2 172.58-23.1ZM194.83-30.15L194.83-30.15Q193.73-30.15 192.93-30.95 192.13-31.75 192.13-32.85L192.13-32.85Q192.13-34 192.93-34.77 193.73-35.55 194.83-35.55L194.83-35.55Q195.98-35.55 196.75-34.77 197.53-34 197.53-32.85L197.53-32.85Q197.53-31.75 196.75-30.95 195.98-30.15 194.83-30.15ZM196.98-23.85L197.03-5.7Q197.03-4.25 197.15-2.85 197.28-1.45 197.68-0.35L197.68-0.35Q197.38-0.1 196.8 0.23 196.23 0.55 195.38 0.55L195.38 0.55Q194.43 0.55 193.78-0.05 193.13-0.65 193.13-1.65L193.13-1.65 193.08-19.8Q193.08-21.25 192.95-22.65 192.83-24.05 192.43-25.15L192.43-25.15Q192.73-25.4 193.3-25.73 193.88-26.05 194.73-26.05L194.73-26.05Q195.73-26.05 196.35-25.48 196.98-24.9 196.98-23.85L196.98-23.85ZM215.38 0.65L215.38 0.65Q209.98 0.65 206.83-2.73 203.68-6.1 203.68-12.55L203.68-12.55Q203.68-18.8 206.75-22.43 209.83-26.05 215.58-26.05L215.58-26.05Q218.28-26.05 220.33-25.23 222.38-24.4 223.55-22.8 224.73-21.2 224.73-18.85L224.73-18.85Q224.73-15.1 221.7-13.18 218.68-11.25 213.38-11.25L213.38-11.25Q211.28-11.25 209.38-11.43 207.48-11.6 205.53-12L205.53-12 205.63-13.65Q206.88-13.4 208.55-13.25 210.23-13.1 211.83-13.05L211.83-13.05Q213.58-13.05 215.15-13.35 216.73-13.65 217.93-14.35 219.13-15.05 219.8-16.28 220.48-17.5 220.48-19.35L220.48-19.35Q220.48-21.3 219.73-22.35 218.98-23.4 217.83-23.83 216.68-24.25 215.43-24.25L215.43-24.25Q212.08-24.25 210-21.43 207.93-18.6 207.93-13.05L207.93-13.05Q207.93-8.9 209.05-6.53 210.18-4.15 212.08-3.13 213.98-2.1 216.33-2.1L216.33-2.1Q219.03-2.1 221.08-3.23 223.13-4.35 223.83-6.45L223.83-6.45Q224.33-6.25 224.55-5.73 224.78-5.2 224.28-3.95L224.28-3.95Q223.33-1.7 220.93-0.53 218.53 0.65 215.38 0.65ZM238.22 0.65L238.22 0.65Q234.97 0.65 232.9-0.18 230.82-1 229.87-2.38 228.92-3.75 228.92-5.4L228.92-5.4Q228.92-6.25 229.22-6.95 229.52-7.65 230.25-8.03 230.97-8.4 232.22-8.15L232.22-8.15Q232.07-7.65 232.05-7.18 232.02-6.7 232.12-6.05L232.12-6.05Q232.22-3.85 233.92-2.55 235.62-1.25 238.57-1.25L238.57-1.25Q241.32-1.25 243.07-2.25 244.82-3.25 244.82-5.2L244.82-5.2Q244.82-6.8 243.8-7.78 242.77-8.75 241.17-9.5 239.57-10.25 237.82-11.1L237.82-11.1Q235.87-12 234.07-13.03 232.27-14.05 231.1-15.6 229.92-17.15 229.92-19.65L229.92-19.65Q229.92-21.95 231.17-23.38 232.42-24.8 234.47-25.45 236.52-26.1 238.92-26.1L238.92-26.1Q243.02-26.1 245.32-24.78 247.62-23.45 247.62-21.1L247.62-21.1Q247.62-20.25 247.22-19.6 246.82-18.95 245.77-18.8L245.77-18.8Q245.42-18.7 245.07-18.73 244.72-18.75 244.32-18.8L244.32-18.8Q244.42-19.3 244.42-19.88 244.42-20.45 244.27-20.9L244.27-20.9Q244.07-22.55 242.62-23.4 241.17-24.25 238.77-24.25L238.77-24.25Q237.42-24.25 236.25-23.93 235.07-23.6 234.35-22.83 233.62-22.05 233.62-20.8L233.62-20.8Q233.62-19.15 234.52-18.07 235.42-17 236.92-16.23 238.42-15.45 240.07-14.65L240.07-14.65Q241.57-13.95 243.07-13.23 244.57-12.5 245.85-11.58 247.12-10.65 247.87-9.45 248.62-8.25 248.62-6.5L248.62-6.5Q248.62-4.85 247.7-3.2 246.77-1.55 244.5-0.45 242.22 0.65 238.22 0.65Z" opacity="1" transform="matrix(1,0,0,1,0,0)" fill="#009b7d" class="wordmark-text-0" data-fill-palette-color="primary" id="text-0"></path></svg></g></svg></g></svg></g></svg></g><g transform="matrix(1,0,0,1,170.8107992371881,0)"><svg viewBox="0 0 55.87600152562373 82.51325061357171" height="82.51325061357171" width="55.87600152562373"><g><svg xmlns="http://www.w3.org/2000/svg" xmlns:xlink="http://www.w3.org/1999/xlink" version="1.1" x="0" y="0" viewBox="20.9804993 7.1463013 58.039001400000004 85.7073974" style="enable-background:new 0 0 100 100;" xml:space="preserve" height="82.51325061357171" width="55.87600152562373" class="icon-icon-0" data-fill-palette-color="accent" id="icon-0"><g fill="#ffbf5d" data-fill-palette-color="accent"><path d="M79.02 20.959L78.544 7.146l-11.725 7.318 3.339 1.778C53.094 45.896 21.306 50.538 20.98 50.582l0.399 2.974 0.393 2.974c1.452-0.192 35.164-5.031 53.683-37.468L79.02 20.959z" fill="#ffbf5d" data-fill-palette-color="accent"></path><rect x="21.3789978" y="65.555603" width="11.5281372" height="27.2980957" fill="#ffbf5d" data-fill-palette-color="accent"></rect><rect x="44.4352112" y="55.555603" width="11.5280762" height="37.2980957" fill="#ffbf5d" data-fill-palette-color="accent"></rect><rect x="67.4913635" y="41.555542" width="11.5281372" height="51.2981567" fill="#ffbf5d" data-fill-palette-color="accent"></rect></g></svg></g></svg></g><g></g></svg></g><defs></defs></svg><rect width="395.52" height="187.28882255089587" fill="none" stroke="none" visibility="hidden"></rect></g></svg></g></svg>